<mxfile host="app.diagrams.net" modified="2023-09-11T05:38:17.416Z" agent="Mozilla/5.0 (Macintosh; Intel Mac OS X 10_15_7) AppleWebKit/537.36 (KHTML, like Gecko) Chrome/116.0.0.0 Safari/537.36" version="21.7.4" etag="ts92mDKirYYHUcZ9ZkXI" type="github">
  <diagram name="Page-1" id="EVB2JG9kK474J4FMBU9G">
    <mxGraphModel>
      <root>
        <mxCell id="0" />
        <mxCell id="1" parent="0" />
      </root>
    </mxGraphModel>
  </diagram>
</mxfile>
